# xmcd
#
# Track frame offsets: 
#        150
#        21276
#        33117
#        45640
#        63604
#        83100
#        101217
#        114256
#        124488
#        137868
#        157092
#        168118
#        186785
#        200834
#        220560
#        232742
#        244848
#        255163
#        267317
#        279666
#        293673
#
# Disc length: 3977 seconds
#
# Revision: 0
# Processed by: cddbd v1.5.2PL0 Copyright (c) Steve Scherf et al.
# Submitted via: ExactAudioCopy v1.0b1
#
DISCID=2d0f8715
DTITLE=T-Bone Walker - Very Rare
DYEAR=1973
DGENRE=Texas Blues
TTITLE0=Striking On You, Baby
TTITLE1=Please Send Me Someone To Love
TTITLE2=The Last Clean Shirt
TTITLE3=Evening
TTITLE4=The Come Back
TTITLE5=Your Picture Done Faded
TTITLE6=Don't Give Me The Runaround
TTITLE7=Hard Times
TTITLE8=Every Day I Have The Blues
TTITLE9=Person To Person
TTITLE10=Person To Person
TTITLE11=Three Corn Patches
TTITLE12=I'm Still In Love With You
TTITLE13=Just A Little Bit
TTITLE14=James Junior
TTITLE15=Been Down So Long
TTITLE16=If You Don't Come Back
TTITLE17=Kansas City
TTITLE18=Well, I Done Got Over It
TTITLE19=Dialogue
TTITLE20=Stormy Monday
EXTD=
EXTT0=
EXTT1=
EXTT2=
EXTT3=
EXTT4=
EXTT5=
EXTT6=
EXTT7=
EXTT8=
EXTT9=
EXTT10=
EXTT11=
EXTT12=
EXTT13=
EXTT14=
EXTT15=
EXTT16=
EXTT17=
EXTT18=
EXTT19=
EXTT20=
PLAYORDER=
